<?xml version="1.0" ?><svg xmlns="http://www.w3.org/2000/svg" xmlns:xlink="http://www.w3.org/1999/xlink" version="1.1" viewBox="0 0 64 64" style="enable-background:new 0 0 64 64;" xml:space="preserve"><g id="Grid"/><g id="Object"><g><path d="M2,54.27h11.43V43.38H2V54.27z M4.19,45.57h7.05v6.52H4.19V45.57z"/><path d="M18.19,54.27h11.43V34.87H18.19V54.27z M20.38,37.05h7.05v15.04h-7.05V37.05z"/><path d="M34.38,54.27h11.43v-27.9H34.38V54.27z M36.57,28.56h7.05v23.53h-7.05V28.56z"/><path d="M57.37,17.88V9.73h-2.19v8.16h-4.61v36.39H62V17.88H57.37z M59.81,52.09h-7.05V20.07h7.05V52.09z"/><path d="M8.95,41.73h2.19c0-3.34,2.72-6.06,6.06-6.06v-2.19C12.65,33.49,8.95,37.18,8.95,41.73z"/><path d="M25.14,33.47h2.19c0-3.34,2.72-6.06,6.06-6.06v-2.19C28.84,25.23,25.14,28.93,25.14,33.47z"/><path d="M41.34,25.22h2.19c0-3.34,2.72-6.06,6.06-6.06v-2.19C45.03,16.97,41.34,20.67,41.34,25.22z"/><polygon points="52.36,12.9 54.69,12.9 54.69,10.72 51.87,10.72 53.33,11.81   "/></g></g></svg>